<svg viewBox="0 0 588 142" xmlns="http://www.w3.org/2000/svg" id="dsmIcon"><g id="Symbols" stroke-width="1" fill-rule="evenodd"><g fill-rule="nonzero" id="Logo/-le_original"><path id="Rectangle" fill="#006CB7" d="M170.204 0h417.728v5.676H170.204zM170.204 136.176h288.523v5.676H170.204zM496.559 136.176h91.366v5.676h-91.366z"/><path d="M201.773 81.911h11.301c0 6.729-1.97 11.134-5.91 13.216-2.801 1.491-8.144 2.235-16.03 2.23-8.835 0-14.746-1.817-17.733-5.452-2.631-3.156-3.945-9.294-3.94-18.414 0-9.046 1.255-15.183 3.767-18.409 2.92-3.816 8.889-5.725 17.906-5.725 9.43 0 15.521 1.785 18.272 5.354 2.445 3.147 3.668 10.041 3.668 20.682h-32.386c0 5.498.479 8.99 1.437 10.477 1.24 1.909 4.23 2.863 8.972 2.863 3.94 0 6.518-.26 7.714-.793 1.974-.888 2.962-2.898 2.962-6.029m-21.067-13.674h21.104c0-4.598-.6-7.456-1.797-8.576-1.198-1.12-4.162-1.679-8.891-1.679-4.672 0-7.634.678-8.885 2.032-1.02 1.124-1.53 3.865-1.53 8.223M254.693 96.874l.347-7.082h-.347c-2.33 5.048-7.23 7.57-14.697 7.566-7.882 0-13.076-2.444-15.583-7.33-1.62-3.152-2.427-9.17-2.423-18.055 0-7.807.987-13.29 2.962-16.45 2.577-4.107 7.61-6.172 15.1-6.197 7.488-.024 12.22 2.23 14.194 6.766h.447V29.666h11.227v67.208h-11.227zM243.41 57.982c-4.544 0-7.487 1.279-8.83 3.835-.912 1.723-1.367 5.11-1.363 10.162 0 6.419.395 10.55 1.184 12.392 1.268 2.912 4.27 4.368 9.009 4.368 5.34 0 8.676-1.396 10.006-4.188.855-1.785 1.28-5.975 1.277-12.572 0-5.106-.577-8.553-1.73-10.341-1.515-2.437-4.7-3.656-9.553-3.656z" id="Shape"/><path d="M318.133 96.874h-10.905V89.62h-.322c-2.164 5.163-7.142 7.743-14.932 7.739-10.554 0-15.829-4.503-15.825-13.508V49.847h11.221v29.592c0 3.637.428 6.016 1.24 7.15 1.016 1.433 3.232 2.148 6.648 2.144 4.192 0 7.156-.907 8.891-2.72 1.735-1.814 2.604-4.84 2.609-9.077l.123-27.09h11.228l.024 47.028zM358.58 78.962h11.32c0 7.563-1.732 12.623-5.197 15.18-2.863 2.144-8.266 3.216-16.21 3.216-8.777 0-14.56-1.847-17.348-5.54-2.441-3.16-3.664-9.296-3.668-18.408 0-9 1.194-15.08 3.581-18.24 2.925-3.871 8.747-5.809 17.467-5.813 7.641 0 12.956.983 15.942 2.95 3.623 2.387 5.434 7.061 5.434 14.021h-11.32c0-3.606-.808-5.944-2.423-7.014-1.239-.888-3.81-1.332-7.714-1.332-4.544 0-7.385 1.07-8.525 3.21-.827 1.61-1.24 5.683-1.24 12.218s.389 10.544 1.165 12.027c1.078 2.201 3.951 3.302 8.619 3.302 4.308 0 7.074-.578 8.296-1.735 1.223-1.156 1.843-3.841 1.859-8.055" id="Path"/><path d="M408.49 96.874l.365-5.917h-.272c-1.012 2.735-3.04 4.57-6.085 5.508-1.908.62-4.752.893-8.507.893-6.035 0-10.372-.952-13.012-2.857-3.048-2.205-4.572-6.223-4.572-12.05 0-5.594 1.586-9.493 4.758-11.699 2.64-1.784 6.921-2.679 12.845-2.683 3.767 0 6.49.238 8.172.713a9.083 9.083 0 015.923 4.628h.36v-6.097c0-4.058-.508-6.722-1.524-7.974-1.248-1.557-4.094-2.336-8.538-2.336-2.991 0-5.085.329-6.283.985-1.735.955-2.605 2.813-2.609 5.577h-11.289c0-6.134 2.035-10.213 6.103-12.237 2.627-1.31 7.316-1.965 14.065-1.965 8.06 0 13.493 1.033 16.302 3.098 3.354 2.454 5.029 7.436 5.025 14.945V96.85l-11.227.024zm-10.46-21.159c-3.717 0-6.152.27-7.304.812-2.066.962-3.098 2.935-3.098 5.917 0 3.172.782 5.205 2.348 6.097 1.318.78 3.992 1.17 8.024 1.17 3.668 0 6.163-.356 7.485-1.071 1.976-1.078 2.974-3.141 2.974-6.196 0-2.925-1.052-4.866-3.154-5.824-1.326-.6-3.761-.9-7.305-.905h.03z" id="Shape"/><path d="M425.045 58.472v-8.625h5.862V39.27h11.227v10.577h18.11v8.625h-18.11v24.015c0 2.442.206 4.017.62 4.728.62 1.016 2.013 1.518 4.231 1.518 2.82 0 4.56-1.035 5.23-3.13.297-.953.44-3.215.44-6.815h10c.116 6.688-.783 11.347-2.695 13.978-2.214 3.049-6.52 4.571-12.919 4.567-6.097 0-10.252-.923-12.466-2.77-2.454-2.065-3.68-6.057-3.68-11.977V58.422l-5.85.05z" id="Path"/><path d="M482.724 39.27h-11.209v-9.604h11.227l-.018 9.604zm0 57.623h-11.209V49.847h11.227l-.018 47.046zM513.784 49.357c9.443 0 15.594 1.731 18.452 5.193 2.454 2.974 3.678 9.26 3.674 18.86 0 9.53-1.224 15.785-3.674 18.768-2.863 3.449-9.013 5.176-18.452 5.18-9.438.004-15.589-1.723-18.451-5.18-2.454-2.983-3.679-9.238-3.675-18.768 0-9.604 1.225-15.89 3.675-18.86 2.862-3.466 9.013-5.197 18.451-5.193m0 8.625c-4.808 0-7.87 1.01-9.188 3.03-1.144 1.793-1.715 5.952-1.71 12.479.004 6.526.574 10.628 1.71 12.305 1.239 1.958 4.302 2.939 9.188 2.943 4.887.004 7.985-.977 9.294-2.943 1.087-1.652 1.63-5.754 1.63-12.305 0-6.65-.543-10.81-1.63-12.479-1.321-2.012-4.42-3.022-9.294-3.03" id="Shape"/><path d="M545.409 49.847h11.22v7.076h.391a10.254 10.254 0 015.917-6.32c2.026-.824 4.957-1.24 8.86-1.24 5.965 0 10.141 1.269 12.529 3.805 2.387 2.536 3.581 6.787 3.581 12.751V96.9H576.65V67.16c0-3.514-.62-5.918-1.79-7.194-1.172-1.277-3.539-1.927-7.002-1.927-4.544 0-7.625 1.103-9.245 3.309-1.321 1.788-1.982 5.037-1.982 9.746V96.93h-11.221V49.847zM576.816 45.02v-6.314h-2.36v-.848h5.675v.848h-2.367v6.314zM581.073 45.02v-7.162h1.431l1.692 5.074c.16.471.272.824.347 1.06.08-.26.204-.62.378-1.153l1.716-4.957h1.276v7.138h-.917v-5.985l-2.094 5.985h-.855l-2.07-6.097v6.097h-.904z" id="Path"/><path d="M.96 140.903h139.956V.948H.96v139.955zm130.65-81.787c-.236 4.337-1.624 9.796-2.845 13.427-4.92 14.622-10.626 23.687-23.842 23.687-3.885 0-10.793-1.035-13.334-7.956l-.62-1.642-1.065 1.351a21.525 21.525 0 01-16.847 8.29c-5.044 0-9.09-1.666-11.71-4.888l-.72-.886-.767.849c-2.801 3.098-7.671 4.863-13.371 4.863-4.48 0-8.346-1.524-10.887-4.281l-.694-.756-.725.731c-2.825 2.85-7.28 4.288-12.881 4.158-6.816-.161-10.93-3.953-11.066-10.15-.205-9.523 9.04-29.616 12.863-35.725 2.478-4.084 5.904-6.06 10.446-6.06 3.098 0 5.211.62 6.469 1.976 1.146 1.215 1.375 2.225 1.5 4.703l.13 3.179 1.678-2.702c4.059-6.537 10.781-7.435 17.442-7.435 4.635 0 8.675 1.704 10.298 4.337l.62.967.867-.737c3.432-2.919 8.278-4.524 13.631-4.524 5.855 0 10.106 1.456 12.646 4.338.617.65 1.12 1.4 1.487 2.218l.657 1.37.973-1.16c3.717-4.392 8.786-6.617 15.08-6.617 4.958 0 8.768 1.326 11.247 3.935 3.098 3.277 3.55 7.88 3.376 11.152l-.037-.012z" id="Shape" fill="#FFED00"/><path d="M.96 140.903h139.962V.948H.96v139.955zm134.59-76.409c-.62 5.093-4.077 14.53-5.905 18.297-4.907 10.112-11.463 17.882-24.096 17.882-6.748 0-12.3-2.15-15.546-6.29a25.407 25.407 0 01-16.97 6.346c-4.877 0-9.19-1.407-12.48-4.016-3.63 2.56-8.525 3.984-13.953 3.984a20.038 20.038 0 01-11.81-3.544c-3.531 2.348-8.16 3.507-13.593 3.377-9.04-.21-15.28-5.948-15.49-14.25-.211-11.08 9.108-31.322 13.5-38.33 3.278-5.396 8.297-8.296 14.437-8.296 6.673 0 9.108 1.903 10.28 4.338 5.142-4.369 11.964-4.623 16.815-4.623 5.36 0 8.724 1.425 11.587 3.718a26.283 26.283 0 0113.885-3.6c6.902 0 12.027 1.605 15.602 5.143 4.176-3.47 9.399-5.056 15.248-5.056 7.726 0 12.82 2.788 15.806 6.946 4.207 5.86 3.457 11.772 2.683 18.005v-.03z" id="Shape" fill="#E3000F"/><path d="M0 141.851h141.851V0H0v141.851zm139.9-1.952H1.951V1.952h137.947v137.947z" id="Shape"/><path d="M134.862 42.566V41.6h.657c.483 0 .73.167.73.477 0 .31-.16.49-.65.49h-.737zm2.355 2.002l-.41-.707c-.353-.62-.452-.718-.755-.824a.979.979 0 00.954-.985.967.967 0 00-1.11-.985h-1.759v3.52h.725v-1.463h.136a.675.675 0 01.577.18c.189.206.35.438.477.688l.285.576h.88zm-1.73-4.499a2.732 2.732 0 11-2.725 2.727 2.726 2.726 0 012.726-2.727zm0-.675a3.402 3.402 0 103.402 3.402 3.395 3.395 0 00-3.401-3.402zM116.987 43.037c-7.33 0-12.392 2.906-15.825 6.965a9.083 9.083 0 00-1.642-2.479c-2.807-3.172-7.317-4.653-13.377-4.653-5.917 0-10.85 1.859-14.25 4.759-1.78-2.894-6.023-4.808-11.154-4.808-6.679 0-13.96.948-18.272 7.906-.105-2.479-.334-3.836-1.74-5.323-1.692-1.784-4.48-2.255-7.182-2.255-4.913 0-8.612 2.144-11.277 6.518-3.86 6.196-13.222 26.463-13.011 36.296.142 6.345 4.399 10.924 12.026 11.103 5.955.143 10.626-1.45 13.6-4.448 2.665 2.893 6.736 4.597 11.606 4.597 5.421 0 10.874-1.63 14.095-5.192 2.714 3.34 6.99 5.279 12.48 5.254a22.517 22.517 0 0017.608-8.674c2.262 6.152 7.993 8.6 14.251 8.6 13.724 0 19.747-9.437 24.784-24.357 1.128-3.358 2.64-8.971 2.887-13.68.422-7.845-2.9-16.141-15.595-16.141M25.695 80.548c7.094-1.24 8.885 1.338 8.674 3.718-.688 7.1-7.212 8.674-12.881 8.562-4.108-.099-7.807-1.982-7.906-6.753-.18-8.352 8.333-27.665 12.342-34.078 1.859-3.042 4.108-4.542 7.702-4.542 3.414 0 4.256 1.747 4.207 3.848-.137 5.576-9.177 22.584-12.138 29.226m23.117-6.555c-.47 1.24-1.363 3.934-2.082 6.754a23.08 23.08 0 017.076-.911c3.408.08 5.576 1.493 5.576 4.337 0 6.816-7.559 8.848-12.8 8.848-5.757 0-10.813-3.278-10.813-9.573 0-7.38 4.003-18.588 7.758-26.023 4.61-9.152 9.294-10.372 17.43-10.372 3.568 0 7.676 1.53 7.676 4.895 0 4.665-3.953 6.443-7.875 6.667a53.509 53.509 0 01-5.787.08 32.77 32.77 0 00-2.695 5.527c7.255-1.016 10.335.62 9.108 4.827-1.655 5.669-6.568 6.047-12.584 4.956M84.495 56.34c-1.964 0-3.247 1.24-4.201 2.584-2.1 2.955-6.66 14.796-7.373 19.654-.484 3.333.954 4.015 2.528 4.015 2.521 0 5.347-2.67 6.313-7.076 0 0-4.802-.118-3.476-4.375 1.283-4.126 3.718-5.025 7.77-5.192 7.962-.322 7.181 5.577 6.543 8.675-2.076 10.186-9.325 18.37-19.58 18.37-7.025 0-11.381-3.884-11.381-11.047 0-5.1 2.534-13.11 4.535-17.795 4.275-9.975 8.749-16.958 20.162-16.958 6.816 0 12.25 2.478 11.456 8.873-.582 4.709-2.937 7.472-7.218 7.807-1.196.092-6.097 0-4.467-4.666.564-1.623.799-2.894-1.611-2.894m43.093 8.42a68.856 68.856 0 01-6.865 18.41c-4.802 8.636-10.639 9.85-15.738 9.789-5.1-.062-10.806-1.921-10.868-9.784-.03-5.638 2.404-13.63 4.467-18.83 3.607-9.46 7.287-17.18 18.923-17.045 13.57.162 11.153 12.231 10.093 17.486m-9.672-5.899c-.148 3.625-5.458 18.117-7.348 21.314-.818 1.388-1.735 2.534-3.402 2.534-1.443 0-2.094-1.028-2.131-2.205-.105-3.272 5.899-19.667 7.95-22.306a3.179 3.179 0 013.097-1.617c1.704 0 1.86 1.239 1.86 2.305" id="Shape"/></g></g></svg>