<svg viewBox="0 0 48 48" xmlns="http://www.w3.org/2000/svg" id="dsmIcon"><g id="Icon/48/codeblock-extension" stroke-width="1" fill-rule="evenodd"><path d="M37 8V5h2v3h3v2h-3v3h-2v-3h-3V8h3zM10.738 23H5V12h7.13l1.341 2h3.344l1.34-2H31v11H19.548l-1.342 2H12.08l-1.341-2zM7 21h4.804l1.341 2h3.995l1.342-2H29v-7h-9.778l-1.34 2h-5.477l-1.342-2H7v7zm3.738 19H5V28h4.993l1.342 2h7.615l1.342-2H41v12H19.548l-1.342 2H12.08l-1.341-2zM7 38h4.804l1.341 2h3.995l1.342-2H39v-8H21.358l-1.342 2H10.27l-1.342-2H7v8z" id="Combined-Shape"/></g></svg>