<svg viewBox="0 0 48 48" xmlns="http://www.w3.org/2000/svg" id="dsmIcon"><g id="Icon/48/essential-extension" stroke-width="1" fill-rule="nonzero"><path d="M21.202 17.25h-6.185c-4.29 0-7.767 3.47-7.767 7.75 0 4.28 3.478 7.75 7.767 7.75h6.185c.898 0 1.627-.727 1.627-1.625v-2.277c0-.033.013-.065.037-.089L24.1 27.54c.31-.305.483-.72.483-1.155v-2.773c0-.43-.171-.844-.477-1.149l-1.24-1.238a.124.124 0 01-.037-.087v-2.263c0-.898-.729-1.625-1.627-1.625zm-6.185 1.5h6.185c.07 0 .127.056.127.125v2.263c0 .43.172.844.477 1.15l1.24 1.237a.124.124 0 01.037.087v2.773a.124.124 0 01-.037.088l-1.234 1.22c-.309.305-.483.72-.483 1.155v2.277a.126.126 0 01-.127.125h-6.185c-3.461 0-6.267-2.799-6.267-6.25s2.806-6.25 6.267-6.25z" id="Stroke-3"/><path d="M35.962 17.25H25.5a.75.75 0 00-.75.75v2.076l.008.11a.75.75 0 00.187.394l1.742 1.921v5.569l-1.65 1.299a.75.75 0 00-.287.59V32c0 .414.336.75.75.75h10.462a.75.75 0 00.75-.75v-2.587c0-.062.026-.122.073-.168l1.434-1.384c.339-.328.531-.777.531-1.246v-3.15c0-.466-.19-.912-.524-1.24l-1.442-1.406a.232.232 0 01-.072-.166V18a.75.75 0 00-.75-.75zm-9.712 1.5h8.961v1.903c0 .467.19.913.526 1.24l1.44 1.406a.233.233 0 01.073.166v3.15c0 .06-.026.12-.074.167l-1.433 1.385-.108.113a1.73 1.73 0 00-.423 1.133l-.001 1.837H26.25v-.928l1.651-1.298a.75.75 0 00.287-.59v-6.222l-.009-.11a.75.75 0 00-.186-.394l-1.743-1.921V18.75z" id="Stroke-3-Copy"/><path id="Path-4" d="M41.25 10v6h-1.5v-6z"/><path id="Path-4-Copy" transform="rotate(90 40.5 13)" d="M41.25 10v6h-1.5v-6z"/></g></svg>