<svg viewBox="0 0 48 48" xmlns="http://www.w3.org/2000/svg" id="dsmIcon"><g id="Icon/48/field_CW" stroke-width="1" fill-rule="evenodd"><g id="field_CW"><g id="Group" transform="matrix(-1 0 0 1 48 0)"><path id="Path-3" fill="#FFF" d="M1.647 2v22H24v-8.416h-7.156l4.07-3.327h8.394l5.351 4.038 3.02 5.68v6.033l-3.704 5.888-5.56 3.606-.93 2.477L29.308 46l6.232-2.016 5.802-4.763 4.813-8.97v-8.277l-1.094-5.679-3.719-7.018-9.328-5.237-8.809-1.061-6.361 1.789-4.57 3.19h-2.17V2"/><path d="M8.507 2.979H2.94v.145l-.001 19.674v.145H22.39v-5.738h-9.92l2.476-2.537.258-.265c2.683-2.747 6.263-4.264 10.068-4.264 3.805 0 7.385 1.517 10.068 4.265 5.54 5.678 5.54 14.906 0 20.584a14.141 14.141 0 01-6.378 3.777l-.13.036.039.147 1.371 5.264.034.13.116-.032a19.685 19.685 0 008.873-5.253c3.738-3.83 5.795-8.925 5.795-14.36 0-5.436-2.057-10.532-5.796-14.362-3.734-3.827-8.7-5.931-13.992-5.931-5.293 0-10.257 2.104-13.996 5.933l-2.77 2.827V2.979zM20.43 14.226h4.9v11.696H0V22.798L.001 3.124V0h11.445v6.212a22.25 22.25 0 0113.827-4.787c6.078 0 11.796 2.423 16.082 6.815C45.639 12.629 48 18.478 48 24.697c0 6.218-2.361 12.066-6.645 16.455a22.614 22.614 0 01-10.195 6.034L28.19 48l-.377-1.448-.412-1.58-1.372-5.263-.784-3.012 1.41-.386 1.542-.422c1.9-.52 3.647-1.555 5.053-2.996 4.408-4.517 4.408-11.877 0-16.394-2.13-2.183-4.958-3.38-7.978-3.38-1.706 0-3.35.381-4.843 1.107z" id="Combined-Shape"/></g></g></g></svg>