<svg viewBox="0 0 48 48" xmlns="http://www.w3.org/2000/svg" id="dsmIcon"><g id="Icon/48/gecko-small-hub-bold" stroke-width="1" fill-rule="evenodd"><path d="M34.593 13.75c1.63 0 2.957 1.355 2.957 3.036v15.228c0 1.68-1.327 3.036-2.957 3.036H13.207c-1.63 0-2.957-1.355-2.957-3.036V16.786c0-1.68 1.327-3.036 2.957-3.036h21.386z" id="Path" fill="#FFF" fill-rule="nonzero"/><path d="M34.593 11.25c3.027 0 5.457 2.49 5.457 5.536v15.228c0 3.045-2.43 5.536-5.457 5.536H13.207c-3.027 0-5.457-2.49-5.457-5.536V16.786c0-3.045 2.43-5.536 5.457-5.536zm0 2.5H13.207c-1.63 0-2.957 1.355-2.957 3.036v15.228c0 1.68 1.327 3.036 2.957 3.036h21.386c1.63 0 2.957-1.355 2.957-3.036V16.786c0-1.68-1.327-3.036-2.957-3.036zM25.1 24.45a2.95 2.95 0 012.95 2.95v2.4a2.95 2.95 0 01-2.95 2.95h-2.4a2.95 2.95 0 01-2.95-2.95v-2.4a2.95 2.95 0 012.95-2.95zm0 2.5h-2.4a.45.45 0 00-.45.45v2.4c0 .249.201.45.45.45h2.4a.45.45 0 00.45-.45v-2.4a.45.45 0 00-.45-.45z" id="Combined-Shape"/></g></svg>