<svg viewBox="0 0 48 48" xmlns="http://www.w3.org/2000/svg" id="dsmIcon"><g id="Icon/48/help" stroke-width="1" fill-rule="evenodd"><path d="M24 3.5c11.321 0 20.5 9.179 20.5 20.5S35.321 44.5 24 44.5C12.678 44.5 3.5 35.322 3.5 24S12.678 3.5 24 3.5zm0 3C14.335 6.5 6.5 14.335 6.5 24S14.335 41.5 24 41.5 41.5 33.665 41.5 24 33.665 6.5 24 6.5zm-.003 24.469a2.156 2.156 0 110 4.313 2.156 2.156 0 010-4.313zm.243-18.189c4.704 0 7.456 2.72 7.456 6.496 0 2.443-1.415 3.97-3.314 5.306l-.43.294c-1.398.942-1.988 1.798-2.044 3.061l-.004.203v.736h-3.872v-.736c0-2.52 1.026-3.96 2.241-5.022l.307-.258.312-.245.315-.234.313-.225c1.44-1.024 1.984-1.76 1.984-2.88 0-1.536-1.216-2.624-3.264-2.624-2.227 0-3.408 1.376-3.484 3.173l-.004.187H16.56c0-4.288 2.944-7.232 7.68-7.232z" id="Shape"/></g></svg>