<svg viewBox="0 0 48 48" xmlns="http://www.w3.org/2000/svg" id="dsmIcon"><g id="Icon/48/PlusSquare" stroke-width="1" fill-rule="evenodd"><path d="M22.875 22.875v-6.47h2.25v6.47h6.792v2.25h-6.792v7.114h-2.25v-7.114h-6.792v-2.25h6.792zM7 8.995v30.01A1.99 1.99 0 008.995 41h30.01A1.99 1.99 0 0041 39.005V8.995A1.99 1.99 0 0039.005 7H8.995A1.99 1.99 0 007 8.995zm-2 0A3.99 3.99 0 018.995 5h30.01A3.99 3.99 0 0143 8.995v30.01A3.99 3.99 0 0139.005 43H8.995A3.99 3.99 0 015 39.005V8.995z" id="Shape"/></g></svg>