<svg viewBox="0 0 48 48" xmlns="http://www.w3.org/2000/svg" id="dsmIcon"><path fill-rule="evenodd" clip-rule="evenodd" d="M10 9a1 1 0 00-1 1v31a1 1 0 001 1h28a1 1 0 001-1V15.828a1 1 0 00-.293-.707L32.88 9.293A1 1 0 0032.172 9H10zm-3 1a3 3 0 013-3h22.172a3 3 0 012.12.879l5.83 5.828A3 3 0 0141 15.828V41a3 3 0 01-3 3H10a3 3 0 01-3-3V10z"/><path fill-rule="evenodd" clip-rule="evenodd" d="M18 16V8h-2v9a1 1 0 001 1h14a1 1 0 001-1V8h-2v8H18zM33 32v11h2V31a1 1 0 00-1-1H14a1 1 0 00-1 1v12h2V32h18z"/></svg>