<svg viewBox="0 0 48 48" xmlns="http://www.w3.org/2000/svg" id="dsmIcon"><g id="Icon/48/schedule-small" stroke-width="1" fill-rule="evenodd"><path d="M30.893 6.943v-3h6.497a4.194 4.194 0 014.194 4.194V41.81a4.194 4.194 0 01-4.194 4.194H10.61a4.194 4.194 0 01-4.194-4.194V8.137a4.194 4.194 0 014.194-4.194h6.497v3H10.61c-.659 0-1.194.535-1.194 1.194V41.81c0 .66.535 1.194 1.194 1.194h26.78c.659 0 1.194-.534 1.194-1.194V8.137c0-.66-.535-1.194-1.194-1.194h-6.497zM21.703 18v-3h12.636v3H21.702zm0 9v-3h12.636v3H21.702zm0 9v-3h12.636v3H21.702zM13.66 18v-3h4.595v3H13.66zm0 9v-3h4.595v3H13.66zm0 9v-3h4.595v3H13.66zM25.946 5.443a1.946 1.946 0 10-3.892 0 1.946 1.946 0 003.892 0zm3 0a4.946 4.946 0 11-9.892 0 4.946 4.946 0 019.892 0z" id="Combined-Shape"/></g></svg>