<svg viewBox="0 0 48 48" xmlns="http://www.w3.org/2000/svg" id="dsmIcon"><g id="Icon/48/settings" stroke-width="1" fill-rule="evenodd"><path d="M41.474 19.694a4.297 4.297 0 013.255 4.17v.002a4.298 4.298 0 01-3.255 4.169l-1.618.405-1.447 3.5.857 1.427a4.298 4.298 0 01-5.897 5.897l-1.406-.842-3.533 1.472-.395 1.58a4.297 4.297 0 01-4.17 3.255h-.001a4.298 4.298 0 01-4.17-3.255l-.388-1.554-3.573-1.478-1.372.822a4.297 4.297 0 01-5.897-5.897l.817-1.362-1.487-3.585-1.54-.385A4.297 4.297 0 013 23.865v-.001a4.296 4.296 0 013.255-4.17l1.553-.388L9.29 15.74l-.827-1.38a4.297 4.297 0 01.646-5.248 4.296 4.296 0 015.25-.649l1.403.842 3.534-1.46.397-1.59A4.297 4.297 0 0123.864 3h.002a4.298 4.298 0 014.169 3.255l.404 1.617 3.493 1.453 1.436-.861a4.296 4.296 0 015.25.646 4.296 4.296 0 01.648 5.251l-.867 1.444 1.445 3.481 1.63.408zm.255 4.172v-.002c0-.596-.405-1.115-.983-1.26l-3.094-.774-2.604-6.272.39-.648 1.255-2.093a1.296 1.296 0 00-.195-1.584 1.297 1.297 0 00-1.586-.197l-2.735 1.64-6.283-2.614-.182-.731-.587-2.348A1.297 1.297 0 0023.865 6h-.001c-.596 0-1.115.405-1.26.983l-.764 3.057-6.326 2.613-.647-.388-2.05-1.23a1.298 1.298 0 00-1.78 1.782l1.605 2.678-2.644 6.356-.731.183-2.285.57A1.297 1.297 0 006 23.865v.002c0 .595.405 1.114.983 1.258l3.004.751 2.645 6.377-.39.648-1.206 2.01a1.298 1.298 0 001.782 1.782l2.667-1.599 6.365 2.633.183.733.572 2.287c.144.578.663.983 1.259.983h.002c.595 0 1.114-.405 1.259-.982l.76-3.043 6.323-2.634.649.39 2.055 1.232a1.298 1.298 0 001.781-1.781l-1.634-2.723 2.603-6.292.733-.183 2.351-.588c.578-.145.983-.664.983-1.26z" id="Stroke-1"/><path d="M30.207 24a6.207 6.207 0 10-12.414 0 6.207 6.207 0 0012.414 0zm3 0a9.207 9.207 0 11-18.414 0 9.207 9.207 0 0118.414 0z" id="Stroke-3"/></g></svg>