<svg viewBox="0 0 48 48" xmlns="http://www.w3.org/2000/svg" id="dsmIcon"><g id="Icon/48/spaceship" stroke-width="1" fill-rule="evenodd"><path d="M14.5 16.525v-2.981c0-5.222 3.336-10.036 8.81-12.875L24 .31l.69.359c5.474 2.84 8.81 7.653 8.81 12.875v2.981l11 15.625V34a4.5 4.5 0 01-4.5 4.5H8A4.5 4.5 0 013.5 34v-1.85l11-15.625zm0 5.211L6.5 33.1v.9A1.5 1.5 0 008 35.5h6.5V21.736zm19 0V35.5H40a1.5 1.5 0 001.5-1.5v-.9l-8-11.364zM17.5 35.5h13V13.544c0-3.817-2.389-7.462-6.5-9.834-4.111 2.372-6.5 6.017-6.5 9.834V35.5zm5 5.5h3v3h-3v-3zm-5 0h3v6h-3v-6zm10 0h3v6h-3v-6zM22 10h4a2 2 0 110 4h-4a2 2 0 110-4z" id="Combined-Shape"/></g></svg>