<svg viewBox="0 0 48 48" xmlns="http://www.w3.org/2000/svg" id="dsmIcon"><g id="Icon/48/zoom-in" stroke-width="1" fill-rule="evenodd"><path d="M23.857 21.046h5.164v2h-5.164v5.06h-2v-5.06h-5.165v-2h5.165v-5.049h2v5.049zm13.747 13.477l7.839 7.698-1.402 1.427-7.799-7.66a19.606 19.606 0 01-13.694 5.525c-10.762 0-19.494-8.577-19.494-19.165S11.786 3.184 22.548 3.184c10.763 0 19.495 8.576 19.495 19.164 0 4.625-1.666 8.865-4.439 12.175zm2.439-12.175c0-9.475-7.829-17.164-17.495-17.164-9.665 0-17.494 7.69-17.494 17.164 0 9.476 7.829 17.165 17.494 17.165 9.666 0 17.495-7.69 17.495-17.165z" id="Combined-Shape"/></g></svg>