<svg viewBox="0 0 48 48" xmlns="http://www.w3.org/2000/svg" id="dsmIcon"><g id="Icon/Essential/control-stop" stroke-width="1" fill-rule="evenodd"><path d="M47.932 24.364c-.211 13.055-10.86 23.573-23.964 23.573C10.73 47.937 0 37.205 0 23.967 0 10.73 10.73 0 23.968 0 37.073 0 47.72 10.517 47.932 23.571l.003.397-.003.396z" id="Path" fill="#C6000A" fill-rule="nonzero"/><path d="M46.732 23.591c-.2-12.4-10.315-22.39-22.764-22.39C11.393 1.2 1.2 11.392 1.2 23.967s10.193 22.769 22.768 22.769c12.448 0 22.563-9.992 22.764-22.393l.003-.376-.003-.377z" id="Path" fill="#FF000C" fill-rule="nonzero"/><path id="Fill-5" fill="#FFF" d="M16.114 32.554h16.44V15.381h-16.44z"/></g></svg>