<svg viewBox="0 0 48 48" xmlns="http://www.w3.org/2000/svg" id="dsmIcon"><g id="Icon/Essential/event-receive-blue" stroke-width="1" fill-rule="evenodd"><path d="M22.098.476a2.843 2.843 0 013.149-.001l.186.135 17.88 14.094a2.84 2.84 0 011.076 2.016l.008.217v23.035a2.842 2.842 0 01-2.647 2.836l-.194.007H6.44a2.843 2.843 0 01-2.836-2.648l-.007-.195V16.447c0-.797.335-1.555.917-2.09l.165-.141L21.912.612l.186-.136z" id="Path" fill="#005FA0" fill-rule="nonzero"/><path d="M23.075 28.492a.935.935 0 01.897-.01l.102.064 18.164 12.921a1.63 1.63 0 01-.502.138l-.18.01H6.44l-.158-.008a1.637 1.637 0 01-.25-.043l16.93-12.997.113-.075zM4.797 22.668l13.077 8.291-12.842 9.86a1.632 1.632 0 01-.225-.664l-.01-.183V22.668zm38.4-2.252v19.556l-.007.158a1.634 1.634 0 01-.113.46L28.854 30.473l14.343-10.057zm-20.4-18.963a1.643 1.643 0 011.763.007l.13.093 17.882 14.094.125.11c.279.268.453.627.492 1.013l.008.167v2.013L27.815 29.735l-3.045-2.167-.156-.101a2.134 2.134 0 00-2.241.048l-.142.1-3.343 2.565-14.09-8.934v-4.799l.008-.166c.039-.385.213-.744.49-1.013l.126-.11L22.656 1.553l.141-.1z" id="Shape" fill="#0090F5" fill-rule="nonzero"/><path d="M34.95 16.8a3.6 3.6 0 013.6 3.6v1.808l-10.734 7.527-3.045-2.167-.146-.095a2.134 2.134 0 00-2.393.143l-3.343 2.565-9.139-5.795V20.4a3.6 3.6 0 013.6-3.6h21.6z" id="Combined-Shape" fill="#FFF"/><path d="M34.95 16.8a3.6 3.6 0 013.6 3.6v1.808l-1.201.842.002-2.65a2.4 2.4 0 00-2.236-2.394L34.951 18h-21.6a2.4 2.4 0 00-2.395 2.236l-.005.164-.001 4.759 7.944 5.017-9.144-5.79V20.4a3.6 3.6 0 013.6-3.6h21.6z" id="Shape" fill="#DADADA" fill-rule="nonzero"/></g></svg>