<svg viewBox="0 0 48 48" xmlns="http://www.w3.org/2000/svg" id="dsmIcon"><g id="Icon/Essential/event-volume-3" stroke-width="1" fill-rule="nonzero"><path d="M31.44 11.388c1.329 1.212 2.256 3.356 2.201 4.992a1.2 1.2 0 01-2.395.06l-.003-.14c.03-.926-.605-2.395-1.42-3.14-1.056-.963-2.02-1.472-3.004-1.511h-.228a1.2 1.2 0 11-.08-2.4c1.8-.06 3.374.719 4.93 2.14zm-10.234-2.14l.315.002a1.2 1.2 0 01.06 2.395l-.14.003c-1.064-.035-2.095.475-3.232 1.513-.76.694-1.365 2.02-1.417 2.947l-.003.192a1.2 1.2 0 01-2.398.08c-.055-1.636.872-3.78 2.2-4.992 1.465-1.337 2.945-2.105 4.615-2.14zm13.389-1.015c1.941 1.772 3.315 4.947 3.236 7.316a1.2 1.2 0 01-2.399-.08c.056-1.658-1.027-4.16-2.455-5.463-1.905-1.74-3.682-2.618-5.563-2.555a1.2 1.2 0 01-.08-2.399c2.617-.088 4.937 1.06 7.261 3.181zM20.343 5.048l.355.004a1.2 1.2 0 01-.08 2.399c-1.881-.063-3.658.816-5.563 2.555-1.428 1.303-2.51 3.805-2.455 5.462a1.2 1.2 0 01-2.399.08c-.08-2.368 1.295-5.543 3.236-7.315 2.218-2.025 4.432-3.162 6.906-3.185zM28.659.669l.14.01c7.298.944 12.868 6.506 13.662 13.682a1.2 1.2 0 11-2.386.264c-.67-6.066-5.374-10.762-11.584-11.566a1.2 1.2 0 01.168-2.39zm-8.082 1.046a1.2 1.2 0 01-1.036 1.344c-6.21.804-10.913 5.5-11.584 11.566a1.2 1.2 0 11-2.386-.264C6.365 7.185 11.935 1.623 19.233.679a1.2 1.2 0 011.344 1.036z" id="Combined-Shape" fill="#00CB54"/><path d="M23.937 13.885c1.797 0 3.37.7 4.641 2.06 1.184 1.266 1.825 2.803 1.9 4.55l.008.352-.001 5.353c.283-.144.594-.22.921-.22.568 0 1.09.228 1.499.65.347.367.553.82.6 1.311l.009.214v1.95c0 2.53-.825 4.776-2.446 6.652-1.049 1.215-2.277 2.104-3.663 2.656l-.382.142-.234.075h1.816c.443 0 .857.14 1.209.399l.146.118.139.133c.4.416.614.949.614 1.525 0 .577-.213 1.11-.613 1.527-.36.374-.811.595-1.307.64l-.188.008H19.27a2.04 2.04 0 01-1.493-.648 2.173 2.173 0 01-.614-1.527c0-.576.213-1.108.613-1.525.36-.374.811-.596 1.307-.641l.187-.008 1.816-.001-.233-.074a9.185 9.185 0 01-3.477-2.19l-.3-.31-.268-.299c-1.532-1.772-2.352-3.873-2.439-6.233l-.007-.42v-1.95c0-.574.212-1.106.61-1.523a2.05 2.05 0 012.418-.431v-5.353c0-1.893.645-3.552 1.908-4.903 1.271-1.36 2.843-2.059 4.64-2.059z" id="Path" fill="#B89A00"/><path d="M31.406 27.18c.238 0 .45.093.632.28a.976.976 0 01.265.539l.011.156v1.95l-.008.393c-.08 2.081-.798 3.915-2.146 5.475-1.235 1.43-2.73 2.335-4.466 2.71l-.35.068-.499.085v1.995h3.76l.14.01c.18.03.344.12.488.27.186.193.28.428.28.694a.977.977 0 01-.279.696.862.862 0 01-.489.268l-.14.011H19.27l-.14-.011a.858.858 0 01-.487-.268.974.974 0 01-.28-.696c0-.266.094-.501.278-.694a.865.865 0 01.49-.27l.14-.01h3.76v-1.993l-.497-.086-.351-.068c-1.738-.376-3.233-1.282-4.467-2.711-1.348-1.56-2.067-3.394-2.147-5.475l-.007-.393v-1.95l.011-.156a.974.974 0 01.266-.538.847.847 0 011.259 0 .97.97 0 01.268.537l.011.157v1.95l.008.35c.074 1.73.704 3.203 1.909 4.462 1.289 1.348 2.823 2.013 4.644 2.013 1.822 0 3.356-.665 4.645-2.013 1.204-1.257 1.835-2.732 1.909-4.463l.007-.35v-1.95l.012-.156a.968.968 0 01.267-.537.848.848 0 01.63-.281zm-7.469-12.095c1.461 0 2.717.559 3.764 1.679.984 1.052 1.512 2.311 1.578 3.768l.007.315v9.064l-.007.315c-.066 1.456-.594 2.716-1.578 3.77-1.047 1.118-2.303 1.676-3.764 1.676-1.46 0-2.716-.558-3.764-1.677-.983-1.053-1.511-2.313-1.577-3.77l-.007-.314v-9.064l.007-.315c.066-1.457.594-2.716 1.577-3.768 1.048-1.12 2.303-1.679 3.764-1.679z" id="Shape" fill="#FFF"/></g></svg>