<svg viewBox="0 0 48 48" xmlns="http://www.w3.org/2000/svg" id="dsmIcon"><g id="Icon/Essential/event-broadcast-blue" stroke-width="1" fill-rule="nonzero"><path d="M40.332 9.6H7.672A3.471 3.471 0 004.2 13.073v23.054A3.471 3.471 0 007.672 39.6h32.66a3.471 3.471 0 003.472-3.473V13.073A3.471 3.471 0 0040.332 9.6z" id="Path" fill="#005FA0"/><path d="M28.726 25.413l12.727 12.692c-.33.188-.713.295-1.12.295H7.671c-.41 0-.793-.108-1.124-.297l12.67-12.64.923.925.204.193a5.398 5.398 0 007.48-.243l.901-.925zm13.878-12.34v23.054c0 .412-.11.798-.3 1.131l-12.74-12.705 12.56-12.878c.3.386.48.87.48 1.398zM5.698 11.946l12.67 12.669-12.67 12.64a2.265 2.265 0 01-.298-1.128V13.073c0-.41.109-.795.298-1.127zM40.332 10.8c.29 0 .566.054.821.153L26.965 25.5l-.179.173a4.198 4.198 0 01-5.796-.134L6.546 11.1c.331-.19.716-.299 1.126-.299h32.66z" id="Combined-Shape" fill="#0090F5"/></g></svg>