<svg viewBox="0 0 48 48" xmlns="http://www.w3.org/2000/svg" id="dsmIcon"><g id="Icon/Essential/event-color-red" stroke-width="1" fill-rule="nonzero"><path d="M36.804.414H11.193a6.089 6.089 0 00-6.088 6.088v25.61a6.09 6.09 0 006.088 6.088h25.61a6.09 6.09 0 006.089-6.089V6.501A6.089 6.089 0 0036.804.415z" id="Path" fill="#B89A00"/><path d="M36.804 1.614a4.889 4.889 0 014.888 4.888v25.61c0 2.699-2.19 4.888-4.888 4.888H11.193a4.89 4.89 0 01-4.888-4.889V6.501a4.889 4.889 0 014.888-4.887h25.61zM23.998 5.586c-7.564 0-13.72 6.155-13.72 13.721 0 7.565 6.156 13.72 13.72 13.72 7.565 0 13.72-6.155 13.72-13.72 0-7.566-6.155-13.72-13.72-13.72zm0 1.83c6.568 0 11.89 5.322 11.89 11.891 0 6.567-5.322 11.89-11.89 11.89-6.567 0-11.89-5.323-11.89-11.89 0-6.569 5.323-11.891 11.89-11.891zm0 2.744A9.147 9.147 0 1024 28.454a9.147 9.147 0 000-18.294z" id="Shape" fill="#FFF"/><path id="Path" fill="#C6000A" d="M33.8 25.614l-.002 3.624h2.818v-3.624h8.72v3.624l2.573.001v15.342H22.2V29.24l2.878-.001v-3.624z"/><path d="M46.708 30.438V43.38h-23.31V30.438h23.31zm-14.11-3.625v2.323h-6.32v-2.323h6.32zm11.538 0v2.323h-6.32v-2.323h6.32z" id="Shape" fill="#FF000C"/></g></svg>