<svg viewBox="0 0 48 48" xmlns="http://www.w3.org/2000/svg" id="dsmIcon"><g id="Icon/Essential/event-gyro-essential-right" stroke-width="1" fill-rule="nonzero"><path d="M20.38 10.508c.36 0 .703.119 1.008.359l.149.13.083.09 18.713 18.631.114.125c.497.598.542 1.496.106 2.17l-.11.151-.106.117-2.997 2.998.002.002-.193.189-.657.659-.004-.004-8.89 8.806c-.59.718-1.536.817-2.31.279l-.152-.116-.13-.12-18.63-18.633c-.6-.591-.685-1.572-.218-2.294l.109-.15.106-.117 9.783-9.786 2.912-2.906c.272-.273.593-.457.957-.539l.186-.032.168-.01z" id="Path" fill="#C18401"/><path d="M16.154 15.692l19.489 19.582-2.721 2.697a1.697 1.697 0 00-.246-.317c-.684-.674-1.854-.674-2.543.006-.627.635-.666 1.708-.09 2.426l.124.139.141.12c.042.032.085.06.129.088l-3.724 3.691c-.236.282-.51.298-.788.066l-.09-.083-5.242-5.243 2.159-2.09c1.01-1.01 1.119-2.643.3-3.869l-.13-.18-.176-.205-3.394-3.304c-1.081-1.191-2.88-1.241-4.108-.168l-.157.147-2.08 2.08-5.785-5.785c-.204-.201-.223-.59-.041-.817l.062-.067 3.79-3.792c.074.193.19.374.344.531l.124.113.125.132c.706.666 1.748.597 2.295-.084.772-.645.817-1.703.135-2.394l-.088-.082-.094-.102c-.173-.172-.37-.299-.576-.38l2.856-2.856zm-1.208 15.956a.574.574 0 01.716 0l.093.082 4.231 4.224c.067.103.11.218.126.331l.008.113-.008.107a.52.52 0 01-.067.19l-.059.075-.093.078a.593.593 0 01-.715 0l-.093-.078-4.233-4.236-.058-.079a.73.73 0 010-.646l.058-.08.094-.081zm1.746-1.799a.574.574 0 01.715 0l.093.082 4.232 4.224c.067.103.109.218.126.332l.008.112-.008.108a.52.52 0 01-.067.189l-.06.075-.093.078a.593.593 0 01-.714 0l-.093-.078-4.233-4.236-.059-.078a.73.73 0 010-.647l.06-.079.093-.082z" id="Shape" fill="#FFB515"/><path d="M20.756 11.92L39.49 30.573c.205.2.223.586.04.814l-.062.068-2.973 2.974-19.49-19.584 2.912-2.909a.724.724 0 01.408-.225l.093-.005c.07.002.172.043.265.132l.074.082z" id="Path" fill="#FFF"/><path d="M30.623 2.4c-.44 0-.875.02-1.29.06-.957.086-1.816.253-2.651.49l-.433.14c-.302.102-.46.186-.732.381l-.146.124c-.4.398-.642.792-.642 1.32 0 .874.665 1.495 1.443 1.625l.197.021.233-.003.816-.091.192-.024c.283-.023.641.007 1.714.116.51.057 1.23.286 1.975.63l.645.312a7.92 7.92 0 011.712 1.18l.21.2.49.584c.126.15.219.27.293.379l.463.74.143.247c.039.073.07.138.096.202.29.731.464 1.43.545 2.122l.031.26c.018.167.03.327.04.492l.009.25h-.772c-1.59 0-2.413 1.761-1.495 2.998l.128.154 4.83 4.92c.634.647 1.607.724 2.393.29l.194-.122.206-.167 4.775-4.862a1.867 1.867 0 00-1.113-3.192l-.21-.016-.775-.001-.013-.092-.204-.853a14.39 14.39 0 00-.672-2.094c-.626-1.484-1.3-2.691-2.183-3.738a12.998 12.998 0 00-1.673-1.679 14.347 14.347 0 00-1.567-1.136l-.405-.243C36.2 3.536 34.785 3 33.2 2.661c-.83-.179-1.697-.261-2.577-.261z" id="Path" fill="#00722F"/><path d="M30.623 3.6c.729 0 1.527.062 2.325.234 1.26.27 2.616.72 3.875 1.531.625.359 1.26.809 1.8 1.26.54.449 1.08.99 1.525 1.53.91 1.08 1.535 2.34 1.99 3.421.247.6.413 1.145.542 1.634l.073.287.19.78c.048.27.072.495.084.675l.006.127.006.279h1.798l.13.008c.58.075.797.653.486 1.074l-.074.088-4.775 4.86-.124.08c-.294.163-.627.163-.863 0l-.094-.08-4.775-4.86-.075-.088c-.312-.42-.099-.999.416-1.074l.115-.008h1.884l.002-.102c.006-.106.025-.27.094-.53l-.002-.317a11.644 11.644 0 00-.094-1.393 9.489 9.489 0 00-.624-2.43c-.181-.45-.456-.81-.721-1.26-.275-.45-.635-.81-.995-1.26a9.006 9.006 0 00-2.24-1.625l-.705-.341c-.804-.371-1.656-.656-2.358-.735l-.641-.065c-.507-.05-.942-.082-1.308-.052l-.211.026-.816.091-.099-.008c-.23-.038-.441-.207-.441-.442 0-.121.096-.278.288-.47l.168-.113a.902.902 0 01.145-.069l.479-.159c.635-.18 1.44-.36 2.436-.45.36-.034.757-.054 1.178-.054z" id="Path" fill="#00D357"/><path d="M31.345 19.993v3.6a1.2 1.2 0 01-1.2 1.2h-1.2a1.2 1.2 0 01-1.2-1.2v-3.6h3.6z" id="Path" fill="#0090F5" transform="rotate(45 29.545 22.393)"/><path id="Path" fill="#4DB6FF" transform="rotate(45 29.545 22.393)" d="M30.145 21.192h-1.2v2.402h1.2z"/></g></svg>