<svg viewBox="0 0 48 48" xmlns="http://www.w3.org/2000/svg" id="dsmIcon"><g id="Icon/Essential/lights-3x3-random" stroke-width="1" fill-rule="evenodd"><path d="M39.863 38.903H8.14a3.09 3.09 0 01-3.089-3.089V4.09A3.09 3.09 0 018.139 1h31.724a3.09 3.09 0 013.089 3.09v31.724a3.089 3.089 0 01-3.089 3.09" id="Fill-59" fill="#691FF0"/><path d="M16.31 26.931c.438 0 .793.355.793.793v8.141a.793.793 0 01-.793.793H8.168a.793.793 0 01-.792-.793v-8.14c0-.439.355-.794.792-.794h8.142zm11.762 0c.438 0 .793.355.793.793v8.141a.793.793 0 01-.793.793H19.93a.793.793 0 01-.793-.793v-8.14c0-.439.355-.794.793-.794h8.14zm11.762 0c.438 0 .793.355.793.793v8.141a.793.793 0 01-.793.793h-8.14a.793.793 0 01-.794-.793v-8.14c0-.439.355-.794.793-.794h8.14zM16.31 15.088c.438 0 .793.354.793.792v8.142a.793.793 0 01-.793.793H8.168a.793.793 0 01-.792-.793V15.88c0-.438.355-.792.792-.792h8.142zm11.762 0c.438 0 .793.354.793.792v8.142a.793.793 0 01-.793.793H19.93a.793.793 0 01-.793-.793V15.88c0-.438.355-.792.793-.792h8.14zm11.762 0c.438 0 .793.354.793.792v8.142a.793.793 0 01-.793.793h-8.14a.793.793 0 01-.794-.793V15.88c0-.438.355-.792.793-.792h8.14zM16.31 3.245c.438 0 .793.355.793.793v8.14c0 .44-.355.794-.793.794H8.168a.792.792 0 01-.792-.793V4.038c0-.438.355-.793.792-.793h8.142zm11.762 0c.438 0 .793.355.793.793v8.14c0 .44-.355.794-.793.794H19.93a.793.793 0 01-.793-.793V4.038c0-.438.355-.793.793-.793h8.14zm11.762 0c.438 0 .793.355.793.793v8.14c0 .44-.355.794-.793.794h-8.14a.793.793 0 01-.794-.793V4.038c0-.438.355-.793.793-.793h8.14z" id="Combined-Shape" fill="#DADADA"/><path d="M34.789 21.592L37.684 30H44.4a2.4 2.4 0 012.4 2.4v12a2.4 2.4 0 01-2.4 2.4h-12a2.4 2.4 0 01-2.4-2.4v-5.93l-4.138 1.426a2.4 2.4 0 01-3.05-1.488l-3.908-11.346a2.4 2.4 0 011.488-3.05l11.346-3.908a2.4 2.4 0 013.05 1.488z" id="Path" fill="#4800CB" fill-rule="nonzero"/><path d="M44.4 31.2l.123.006a1.2 1.2 0 011.07 1.071l.007.123v12l-.006.123a1.2 1.2 0 01-1.071 1.07l-.123.007h-12l-.123-.006a1.2 1.2 0 01-1.07-1.071L31.2 44.4v-12l.006-.123a1.2 1.2 0 011.071-1.07l.123-.007h12zm-9.3 9a1.5 1.5 0 100 3 1.5 1.5 0 000-3zm6.6 0a1.5 1.5 0 100 3 1.5 1.5 0 000-3zm-8.091-18.33l.045.113 2.76 8.016L32.4 30a2.4 2.4 0 00-2.394 2.236L30 32.4v4.801l-4.529 1.56-.126.036a1.2 1.2 0 01-1.354-.666l-.045-.114-3.907-11.346-.036-.126a1.2 1.2 0 01.666-1.354l.114-.045 11.346-3.907.126-.036a1.2 1.2 0 011.354.666zM35.1 33.6a1.5 1.5 0 100 3 1.5 1.5 0 000-3zm6.6 0a1.5 1.5 0 100 3 1.5 1.5 0 000-3zm-15.434-.824a1.5 1.5 0 10.977 2.837 1.5 1.5 0 00-.977-2.837zm4.091-8.389a1.5 1.5 0 10.977 2.837 1.5 1.5 0 00-.977-2.837z" id="Shape" fill="#FFF" fill-rule="nonzero"/></g></svg>