<svg viewBox="0 0 48 48" xmlns="http://www.w3.org/2000/svg" id="dsmIcon"><g id="Icon/Essential/motor-right" stroke-width="1" fill-rule="evenodd"><path d="M5.806 25.112c0 10.097 8.185 18.282 18.282 18.282 10.095 0 18.282-8.185 18.282-18.282 0-10.098-8.187-18.282-18.282-18.282-10.097 0-18.282 8.184-18.282 18.282z" id="Path" fill="#0062A6"/><path d="M24.088 8.077c9.267 0 16.83 7.438 17.03 16.66l.005.375c0 9.268-7.44 16.831-16.66 17.031l-.375.004c-9.394 0-17.036-7.641-17.036-17.035 0-9.27 7.44-16.831 16.66-17.031l.376-.004zm0 22.229a4.778 4.778 0 00-.481 9.533l.242.017.239.006.246-.006a4.78 4.78 0 004.508-4.29l.018-.244.006-.238-.006-.246a4.779 4.779 0 00-4.29-4.509l-.244-.018-.238-.005zm9.972-9.972a4.779 4.779 0 00-.482 9.532l.243.018.239.006.246-.006a4.78 4.78 0 004.508-4.29l.018-.244.006-.238-.006-.246a4.78 4.78 0 00-4.29-4.509l-.244-.018-.238-.005zm-19.943 0a4.779 4.779 0 00-.482 9.532l.243.018.239.006.246-.006a4.778 4.778 0 004.506-4.29l.018-.244.006-.238-.006-.246a4.779 4.779 0 00-4.289-4.509l-.243-.018-.238-.005zm9.957 1.453a.833.833 0 00-.824.719l-.007.112v1.638h-1.674l-.124.01a.832.832 0 00-.675.59l-.025.118-.008.113.01.124a.832.832 0 00.59.675l.119.025.113.007h1.674v1.688l.009.123a.833.833 0 00.591.674l.119.025.112.008.124-.01a.832.832 0 00.675-.59l.025-.118.008-.112v-1.688h1.674l.124-.009a.83.83 0 00.674-.59l.025-.12.007-.112-.009-.124a.83.83 0 00-.59-.674l-.118-.025-.113-.008h-1.674v-1.638l-.01-.123a.833.833 0 00-.59-.676l-.119-.025-.113-.007zm.014-11.427a4.778 4.778 0 00-.482 9.533l.243.018.239.006.246-.006a4.78 4.78 0 004.508-4.29l.018-.243.006-.238-.006-.246a4.78 4.78 0 00-4.29-4.51l-.244-.018-.238-.006z" id="Shape" fill="#FFF"/><path d="M38.838 8.254l2.757-2.728A2.532 2.532 0 0145.821 6.7l.046.218 2.052 12.864v.408h.036c0 1.399-1.135 2.532-2.533 2.53l-.21-.008-.209-.026-12.852-2.172a2.53 2.53 0 01-1.509-4.13l.153-.166 2.07-2.051-.12-.114c-5.475-5.045-14.007-4.84-19.233.528-5.317 5.461-5.2 14.199.26 19.513.33.32.673.624 1.028.906a4.2 4.2 0 01-5.233 6.571 22.348 22.348 0 01-1.652-1.456C-.871 31.562-1.06 17.507 7.493 8.722 15.925.06 29.708-.246 38.513 7.947l.325.307z" id="Path" fill="#00722F" fill-rule="nonzero"/><path d="M37.726 8.853l.224.213.94.795 3.521-3.483a1.331 1.331 0 012.256.732l2.076 12.864v.216h.012a1.332 1.332 0 01-1.56 1.308l-12.864-2.172a1.331 1.331 0 01-1.116-1.32c.001-.353.144-.69.396-.936l2.998-2.97-.59-.5-.156-.14c-5.936-5.78-15.433-5.652-21.211.284-5.779 5.936-5.651 15.433.283 21.21.358.348.732.678 1.118.985a3 3 0 11-3.738 4.693c-.541-.43-1.063-.89-1.563-1.376-8.31-8.091-8.49-21.387-.4-29.697 7.986-8.204 21.046-8.483 29.374-.706z" id="Path" fill="#00D357"/></g></svg>