<svg viewBox="0 0 48 48" xmlns="http://www.w3.org/2000/svg" id="dsmIcon"><g id="Icon/Essential/motor-left" stroke-width="1" fill-rule="evenodd"><path d="M5.678 25.112c0 10.097 8.186 18.282 18.282 18.282s18.282-8.185 18.282-18.282c0-10.098-8.186-18.282-18.282-18.282S5.678 15.014 5.678 25.112z" id="Path" fill="#0062A6" transform="matrix(-1 0 0 1 47.92 0)"/><path d="M23.96 8.077c9.268 0 16.831 7.438 17.032 16.66l.004.375c0 9.268-7.44 16.831-16.66 17.031l-.376.004c-9.393 0-17.035-7.641-17.035-17.035 0-9.27 7.44-16.831 16.66-17.031l.375-.004zm0 22.229a4.778 4.778 0 00-.481 9.533l.243.017.238.006.246-.006a4.78 4.78 0 004.509-4.29l.018-.244.006-.238-.006-.246a4.779 4.779 0 00-4.291-4.509l-.243-.018-.239-.005zm9.972-9.972a4.779 4.779 0 00-.481 9.532l.243.018.238.006.246-.006a4.78 4.78 0 004.509-4.29l.018-.244.006-.238-.006-.246a4.78 4.78 0 00-4.291-4.509l-.243-.018-.239-.005zm-19.942 0a4.779 4.779 0 00-.482 9.532l.243.018.239.006.246-.006a4.778 4.778 0 004.506-4.29l.018-.244.006-.238-.007-.246a4.779 4.779 0 00-4.288-4.509l-.243-.018-.238-.005zm9.957 1.453a.833.833 0 00-.824.719l-.007.112v1.638h-1.674l-.124.01a.832.832 0 00-.675.59l-.025.118-.008.113.01.124a.832.832 0 00.59.675l.119.025.113.007h1.674v1.688l.009.123a.833.833 0 00.59.674l.12.025.112.008.124-.01a.832.832 0 00.675-.59l.025-.118.008-.112v-1.688h1.674l.124-.009a.83.83 0 00.674-.59l.025-.12.007-.112-.009-.124a.83.83 0 00-.59-.674l-.118-.025-.113-.008h-1.674v-1.638l-.01-.123a.833.833 0 00-.59-.676l-.119-.025-.113-.007zm.013-11.427a4.778 4.778 0 00-.481 9.533l.243.018.238.006.246-.006a4.78 4.78 0 004.509-4.29l.018-.243.006-.238-.006-.246a4.78 4.78 0 00-4.291-4.51l-.243-.018-.239-.006z" id="Shape" fill="#FFF" transform="matrix(-1 0 0 1 47.92 0)"/><path d="M37.73 8.254l2.758-2.728A2.532 2.532 0 0144.714 6.7l.046.218 2.052 12.864v.408h.036c0 1.399-1.135 2.532-2.533 2.53l-.21-.008-.209-.026-12.852-2.172a2.53 2.53 0 01-1.51-4.13l.154-.166 2.07-2.051-.12-.114c-5.476-5.045-14.008-4.84-19.233.528-5.317 5.461-5.2 14.199.26 19.513.329.32.673.624 1.028.906a4.2 4.2 0 11-5.233 6.571 22.348 22.348 0 01-1.653-1.456c-8.785-8.553-8.974-22.608-.421-31.393C14.818.06 28.6-.246 37.406 7.947l.324.307z" id="Path" fill="#00722F" fill-rule="nonzero" transform="matrix(-1 0 0 1 46.94 0)"/><path d="M36.619 8.853l.224.213.94.795 3.521-3.483a1.331 1.331 0 012.256.732l2.076 12.864v.216h.012a1.332 1.332 0 01-1.56 1.308l-12.864-2.172a1.331 1.331 0 01-1.116-1.32c.001-.353.144-.69.396-.936l2.998-2.97-.59-.5-.156-.14c-5.936-5.78-15.433-5.652-21.211.284-5.78 5.936-5.651 15.433.283 21.21.358.348.732.678 1.117.985a3 3 0 11-3.738 4.693c-.54-.43-1.062-.89-1.563-1.376-8.31-8.091-8.489-21.387-.399-29.697 7.986-8.204 21.046-8.483 29.374-.706z" id="Path" fill="#00D357" transform="matrix(-1 0 0 1 46.94 0)"/></g></svg>