<svg viewBox="0 0 48 48" xmlns="http://www.w3.org/2000/svg" id="dsmIcon"><g id="Icon/Essential/motor-speed-2" stroke-width="1" fill-rule="nonzero"><path d="M24.001 0l.397.004C36.01.213 45.385 9.587 45.596 21.198l.004.401-.004.397c-.209 11.613-9.582 20.989-21.194 21.2l-.4.004-.398-.004C11.858 42.985 2.4 33.396 2.4 21.6 2.4 9.804 11.858.215 23.604.004L24.001 0z" id="Path" fill="#0062A6"/><path d="M23.99 1.2l.397.004.386.01c10.788.396 19.422 9.179 19.623 19.998l.004.387-.004.386-.01.387c-.396 10.788-9.178 19.423-19.998 19.624l-.387.004-.386-.004-.386-.01C12.312 41.586 3.6 32.596 3.6 21.599c0-11.136 8.926-20.189 20.003-20.395l.387-.004zM24 27.938a5.831 5.831 0 00-.523 11.639l.264.017.26.006.267-.006a5.832 5.832 0 005.54-5.3l.017-.265.006-.26-.006-.267a5.832 5.832 0 00-5.3-5.541l-.265-.017-.26-.006zM36.17 15.77a5.83 5.83 0 00-.524 11.638l.264.018.26.006.267-.006a5.833 5.833 0 005.54-5.302l.018-.264.006-.26-.006-.267a5.832 5.832 0 00-5.302-5.54l-.264-.018-.26-.005zm-24.338 0a5.831 5.831 0 00-.523 11.638l.264.018.26.006.267-.006a5.832 5.832 0 005.54-5.302l.017-.264.006-.26-.006-.267a5.831 5.831 0 00-5.3-5.54l-.265-.018-.26-.005zm12.153 1.773c-.517 0-.943.388-1.006.888l-.008.127v1.998l-2.044.001-.127.008c-.413.052-.748.35-.852.744l-.027.134-.007.128.007.127c.052.413.35.748.744.852l.135.026.127.008h2.044v2.059l.008.127c.052.412.35.748.744.852l.134.027.128.008.127-.008c.413-.052.748-.351.853-.745l.026-.134.008-.127v-2.059h2.044l.127-.008c.413-.051.748-.35.853-.743l.026-.135.008-.127-.008-.128a1.013 1.013 0 00-.744-.852l-.135-.026-.127-.008h-2.044v-1.999l-.008-.127a1.016 1.016 0 00-.744-.853l-.135-.027-.127-.008zM24 3.6a5.832 5.832 0 00-.524 11.639l.264.017.26.006.267-.006a5.831 5.831 0 005.54-5.3l.017-.265.006-.26-.006-.266a5.833 5.833 0 00-5.3-5.542l-.265-.017L24 3.6z" id="Shape" fill="#FFF"/><path d="M27 46.746H7.146c-2.01 0-2.356-1.263-.576-2.371l10.83-5.372 9.6-4.76v.001l9.6-4.76v.001l6.917-3.43c.24-.202.47-.246.931-.254l.185-.001c1.164 0 1.988.95 1.988 2.297v15.427c0 1.72-1.503 3.222-3.222 3.222H27z" id="Combined-Shape" fill="#00722F"/><path id="Path" fill="#00D357" d="M16.2 45.545l-9.054.001-.178-.004.186-.12 9.046-4.485z"/><path d="M44.127 27.092l.158-.113c-.037.037.076.021.348.021.46 0 .788.378.788 1.097v15.427l-.008.166c-.094.99-1.013 1.856-2.014 1.856l-5.599-.001V30.228l6.327-3.136zM35.4 31.417v14.128h-7.2V34.987z" id="Path" fill="#FFF"/><path id="Path" fill="#00D357" d="M25.8 36.176v9.37h-7.2v-5.8z"/></g></svg>