<svg viewBox="0 0 48 48" xmlns="http://www.w3.org/2000/svg" id="dsmIcon"><g id="Icon/Essential/sounds-animal" stroke-width="1" fill-rule="nonzero"><path d="M37.333 7.598c-2.548 1.092-4.094 3.112-4.59 5.887-.226 1.25.099 2.376 1.16 3.052 1.007.645 2.07.532 3.206-.061 1.754-.915 2.99-2.38 3.715-4.316.536-1.426.529-2.704-.218-3.896l-.105-.168-.7-.514-.182-.051c-.826-.23-1.564-.241-2.286.067z" id="Fill-15" fill="#763696"/><path d="M44.144 11.935l.2.094.171.097c.937.57 1.273 1.499 1.203 2.658-.072 1.199-.53 2.227-1.435 3.508-.17.21-.341.41-.513.596 1.9.013 3.163 1.541 2.71 3.427-.06.25-.14.496-.243.757l-.144.346-.264.595-.065.162-.339.385c-1.417 1.564-2.73 2.35-4.432 2.442-.72.039-1.354-.145-1.85-.489l.123.337c.368 1.067.395 2.016-.072 2.942-.979 1.942-2.74 2.748-4.68 2.094a8.578 8.578 0 01-.857-.346l-.357-.17-.804-.405-.78-.516-.597-.667a16.14 16.14 0 01-.67-.788l-.213-.28c-.726-.995-1.67-1.755-2.884-2.344l-.634-.292a39.358 39.358 0 01-2.496-1.287l-.136-.08 3.048 14.77c.374 1.813-1.378 3.308-3.079 2.694l-.146-.057-12.782-5.54-4.515.932a2.628 2.628 0 01-3.069-1.883l-.038-.162-1.637-7.93a3.257 3.257 0 012.351-3.805l.18-.043 3.672-.758 9.938-9.719c1.294-1.266 3.443-.65 3.917 1.057l.04.164.717 3.481c.301-.399.677-.76 1.128-1.067.848-.575 1.774-.693 2.87-.503l.391.07 1.25.249c.517.105 1.058.061 1.69-.13l.24-.077 1.13-.403.472-.161c1.182-.39 2.341-.304 3.446.248l.236.125.232.136c.498.306.929.655 1.29 1.045.205-1.143.748-2.186 1.587-3.192 1.042-1.247 2.173-2.059 3.562-2.406.613-.154 1.188-.165 1.733.013l.204.076zm-5.73 8.88l.002.024.005.265.013.386-.003.14-.04.474a8.58 8.58 0 00-.018.582c.244-.58.599-1.13 1.03-1.622l-.075-.005a2.783 2.783 0 01-.914-.244zm-4.28-9.889c.059 1.245-.32 2.36-1.216 3.685a4.783 4.783 0 01-2.29 1.694c-1.782.612-3.521-.375-3.899-2.219-.46-2.236.933-4.955 3.014-5.88 2.196-.976 4.28.316 4.392 2.72z" id="Shape" fill="#763696"/><path d="M35.027 17.166c1.47.83 2.279 2.033 2.353 3.686l.005.252c0 .187.024.375.005.559-.183 1.727.121 3.373.697 4.983l.128.345c.29.758.443 1.563.053 2.334-.758 1.505-1.996 2.06-3.422 1.58-.773-.262-1.49-.686-2.283-1.06-.397-.46-.823-.904-1.21-1.38l-.28-.363c-.873-1.195-1.989-2.048-3.3-2.68l-.306-.142c-.936-.419-1.845-.9-2.744-1.396-2.42-1.338-2.586-4.651-.33-6.182.658-.446 1.373-.467 2.113-.339.539.093 1.074.204 1.608.313.853.174 1.673.035 2.479-.244l1.055-.376c.176-.062.353-.123.53-.182.992-.327 1.93-.226 2.85.292zm10.445 4.906c-.15.621-.463 1.203-.605 1.555-1.186 1.366-2.334 2.253-3.93 2.34-1.285.07-2.083-.867-1.84-2.128.38-1.967 2.537-3.828 4.535-3.914 1.314-.056 2.146.875 1.84 2.147zm-1.607-9.124c.72.377.862 1.047.819 1.773-.066 1.091-.568 2.013-1.206 2.919-.846 1.043-1.835 1.958-3.22 2.315-.267.068-.558.1-.83.072-.967-.094-1.503-.83-1.416-1.912.097-1.234.657-2.274 1.428-3.198.808-.967 1.76-1.751 3.019-2.066.477-.12.957-.136 1.406.097zM39.34 8.53l.388.285c.608.97.504 1.975.126 2.982-.617 1.644-1.656 2.943-3.226 3.761-.69.361-1.449.567-2.169.106-.726-.463-.831-1.247-.696-1.996.426-2.386 1.712-4.145 3.978-5.116.523-.224 1.065-.171 1.6-.022zm-6.24 2.446c.047 1.01-.27 1.915-1.026 3.035a3.773 3.773 0 01-1.783 1.315c-1.19.409-2.294-.215-2.547-1.447-.362-1.76.785-3.998 2.42-4.725 1.528-.679 2.857.144 2.935 1.822z" id="Shape" fill="#00D357"/><path d="M20.79 14.673l5.168 25.05.018.114c.096.863-.774 1.533-1.59 1.18l-12.949-5.612L9.018 23.68l9.83-9.612c.654-.64 1.756-.299 1.942.605zM7.728 24.225L10.07 35.57l-3.7.765a1.428 1.428 0 01-1.69-1.112l-1.637-7.931a2.057 2.057 0 011.599-2.43l3.086-.637z" id="Combined-Shape" fill="#FFF"/></g></svg>