<svg viewBox="0 0 48 48" xmlns="http://www.w3.org/2000/svg" id="dsmIcon"><g id="Icon/Essential/sounds-effect" stroke-width="1" fill-rule="nonzero"><path d="M20.373 14.048l.04.166.65 3.152.456.035c.073.004.045.03.05-.001l.008-.026.09-.23.267-.724.117-.291c.238-.553.522-.962.976-1.301.874-.655 1.908-.56 2.559.306l.095.135.087.143c.165.284.269.565.406 1.01l.061.216.028.115.12.553.04.159.004.054c.004.002.018-.006.064-.006l.977.075.233.022.316.04a2.44 2.44 0 011.677 1.03c.22.313.327.717.29 1.102-.072.728-.46 1.297-1.047 1.72l-.161.113-.885.58c-.102.063-.118.077-.098.165l.052.203.205.85.05.23.042.22c.126.717.017 1.412-.38 2.007-.221.34-.584.589-.973.688-.668.167-1.303-.01-1.83-.411a11.39 11.39 0 01-.847-.718c-.404-.37-.166-.354-.614-.044l-.362.245c-.114.074-.22.142-.325.206l2.856 13.84c.378 1.836-1.395 3.349-3.117 2.728l-.147-.058-12.995-5.633-4.594.947a2.662 2.662 0 01-3.108-1.905l-.039-.164-1.664-8.063a3.301 3.301 0 012.384-3.856l.182-.043 3.736-.771 10.103-9.881.125-.115c1.32-1.127 3.376-.49 3.84 1.186zm15.843 9.427l.152.095.173.131c.445.363.751.836.935 1.393l.083.265.041.143.199.734.187.639c.06.188.137.267.351.312l.1.017.75.111.263.044.367.072a3.051 3.051 0 011.745 1.063c.446.538.548 1.19.32 1.836-.247.697-.7 1.194-1.368 1.657l-.213.145-.892.59c-.294.194-.36.352-.302.699.093.543.156.997.194 1.44a2.915 2.915 0 01-.645 2.133c-.33.405-.876.707-1.457.637-.563-.065-.955-.151-1.356-.349a3.218 3.218 0 01-.583-.365l-.282-.223-.078-.063-.731-.571-.171-.124c-.127-.084-.187-.09-.305-.034l-.173.083-.865.445-.276.134c-.81.366-1.583.457-2.387.16-.44-.16-.829-.52-1.023-.941-.346-.748-.297-1.459-.008-2.304l.08-.227.474-1.246c.071-.237.032-.392-.154-.589l-.41-.394c-.21-.21-.413-.426-.606-.648a2.91 2.91 0 01-.739-2.124c.03-.445.245-.89.56-1.196.42-.409.886-.614 1.452-.703l.239-.03v-.055l1.985.071.17-.001c.155-.005.219-.044.297-.181l.117-.214.362-.717.186-.347c.42-.727.965-1.241 1.746-1.525a1.747 1.747 0 011.496.122zm2.57-19.141l.095.135.087.143c.165.284.269.565.406 1.01l.061.216.028.115.12.553.04.159.004.054.064-.006.977.075.233.022.316.04a2.44 2.44 0 011.677 1.03c.22.313.327.717.29 1.102-.072.728-.46 1.297-1.047 1.72l-.161.113-.885.58c-.102.063-.118.077-.098.165l.052.203.205.85.05.23.042.22c.126.717.017 1.412-.38 2.007-.221.34-.584.589-.973.688-.668.167-1.303-.01-1.83-.411a11.39 11.39 0 01-.847-.718c-.404-.37-.166-.354-.614-.044-.41.283-.721.482-1.049.661-.595.33-1.278.4-1.935.192a1.64 1.64 0 01-.907-.745c-.338-.601-.364-1.27-.15-1.912l.124-.351.405-1.07c.007-.024.008-.04 0-.056l-.019-.024-.837-.728-.24-.219a2.82 2.82 0 01-.884-1.812c-.035-.404.09-.836.334-1.151.19-.25.416-.439.67-.574l.155-.075.154-.06 2.2-.06c.087.005.03.04.058-.027l.09-.23.267-.724.117-.291c.238-.553.522-.962.976-1.301.874-.655 1.908-.56 2.559.306z" id="Shape" fill="#642E7F"/><path d="M17.337 13.755c.645-.519 1.62-.218 1.869.578l.032.123 5.253 25.462.019.117c.093.846-.718 1.512-1.52 1.251l-.11-.041-13.168-5.708L7.251 23.61l9.996-9.775.09-.08zM5.958 24.154l2.385 11.553-3.772.778a1.462 1.462 0 01-1.728-1.136l-1.664-8.063a2.1 2.1 0 011.633-2.482l3.146-.65z" id="Shape" fill="#FFF"/><path d="M35.683 24.556c.331.231.533.549.653.911.125.384.218.777.328 1.166.058.203.114.407.18.609.216.676.701 1.047 1.425 1.15.437.062.872.123 1.302.214.433.09.787.316 1.067.654.175.21.2.422.113.669-.166.469-.517.792-.919 1.07-.358.248-.725.483-1.087.722-.7.465-.957 1.1-.82 1.902.076.445.142.892.18 1.341a1.72 1.72 0 01-.38 1.272c-.085.105-.266.218-.388.203-.329-.038-.677-.092-.967-.236-.26-.126-.484-.318-.712-.502l-.716-.56a5.973 5.973 0 00-.278-.203c-.464-.31-.967-.362-1.48-.123-.387.181-.76.388-1.141.58-.522.262-1.066.414-1.643.2a.667.667 0 01-.342-.316c-.216-.466-.121-.944.037-1.406.155-.446.33-.885.501-1.326.315-.81.137-1.5-.51-2.099a10.996 10.996 0 01-.839-.864 1.707 1.707 0 01-.444-1.251.7.7 0 01.2-.418c.346-.337.805-.404 1.273-.416.261-.006.52.013.781.02v-.007l.66.024c.11.003.22.004.33 0 .592-.017 1.028-.301 1.307-.79.204-.363.38-.741.572-1.11.267-.511.614-.94 1.199-1.153a.56.56 0 01.558.073zm-11.01-8.634c.165.255.264.56.354.854.098.316.14.65.23.969.185.645.511.905 1.182.965l.945.075c.157.014.314.031.47.053.353.049.652.237.86.534a.47.47 0 01.076.29c-.038.379-.26.654-.555.867-.286.206-.59.388-.884.586-.712.481-.87.88-.676 1.717l.2.824c.031.137.06.275.085.415.07.398.03.794-.201 1.142a.476.476 0 01-.26.18c-.304.077-.58-.024-.817-.204a8.684 8.684 0 01-.512-.422l-.247-.222c-.771-.708-1.154-.77-1.96-.246l-.412.277-1.235-5.987.135.01c.591.034 1.01-.222 1.236-.77.142-.346.26-.703.395-1.051.147-.38.327-.738.665-.99.373-.28.673-.257.927.134zm13.2-10.8c.165.255.264.56.354.854.098.316.14.65.23.969.185.645.511.905 1.182.965l.945.075c.157.014.314.031.47.053.353.049.652.237.86.534a.47.47 0 01.076.29c-.038.379-.26.654-.555.867-.286.206-.59.388-.884.586-.712.481-.87.88-.676 1.717l.2.824c.031.137.06.275.085.415.07.398.03.794-.201 1.142a.476.476 0 01-.26.18c-.304.077-.58-.024-.817-.204a8.684 8.684 0 01-.512-.422l-.247-.222c-.771-.708-1.154-.77-1.96-.246l-.146.098c-.308.212-.62.42-.95.6-.305.169-.646.207-.985.1a.444.444 0 01-.229-.191c-.17-.302-.162-.63-.057-.946.137-.41.304-.807.45-1.212.266-.745.163-1.156-.423-1.688-.3-.27-.614-.522-.908-.798a1.615 1.615 0 01-.514-1.043.504.504 0 01.094-.322c.197-.26.487-.354.8-.373.142-.008.283.006.425.01l.93.065c.592.034 1.011-.222 1.237-.77.142-.346.26-.703.395-1.051.147-.38.327-.738.665-.99.373-.28.673-.257.927.134z" id="Shape" fill="#00D357"/></g></svg>