<svg viewBox="0 0 48 48" xmlns="http://www.w3.org/2000/svg" id="dsmIcon"><g id="Icon/Essential/sounds-music" stroke-width="1" fill-rule="nonzero"><path d="M32.26 9.014a1.655 1.655 0 011.812-.92l.15.034.147.05 12.917 5.101a1.657 1.657 0 01.967 2.063l-.07.175-6.94 14.884c-1.166 2.499-4.147 3.573-6.659 2.402-2.511-1.171-3.604-4.146-2.439-6.645 1.166-2.5 4.146-3.574 6.658-2.402a5.05 5.05 0 011.231.81l.188.177 2.538-5.448-9.827-3.88-4.619 9.908c-.993 2.1-3.27 3.184-5.463 2.762l2.413 11.695c.385 1.866-1.48 3.393-3.224 2.637l-12.783-5.54-4.515.932a2.628 2.628 0 01-3.069-1.882l-.038-.162-1.637-7.93a3.257 3.257 0 012.531-3.848l3.67-.758 9.94-9.72c1.294-1.265 3.443-.65 3.917 1.058l.04.163.884 4.288a5.046 5.046 0 016.138.446l.187.176z" id="Combined-Shape" fill="#642E7F"/><path d="M33.904 9.182l.089.03 12.889 5.091c.277.11.419.415.327.69l-.036.088-6.928 14.854c-.908 1.947-3.233 2.785-5.196 1.87-1.961-.915-2.814-3.235-1.906-5.181.908-1.947 3.233-2.785 5.194-1.87a3.92 3.92 0 011.568 1.316l.547.785 3.8-8.153-11.878-4.692-5.056 10.845c-.841 1.778-2.872 2.622-4.714 2.033l-1.379-6.679a3.921 3.921 0 014.197-.557 3.917 3.917 0 011.567 1.315l.546.786L33.258 9.48a.553.553 0 01.646-.297z" id="Combined-Shape" fill="#00D357"/><path d="M18.92 14.973l5.168 25.05.018.113c.096.863-.774 1.533-1.59 1.18L9.568 35.704 7.148 23.98l9.83-9.613c.654-.64 1.756-.298 1.942.606zM5.858 24.524L8.2 35.87l-3.7.764a1.428 1.428 0 01-1.69-1.111L1.173 27.59a2.057 2.057 0 011.599-2.43l3.086-.637z" id="Combined-Shape" fill="#FFF"/></g></svg>