<svg viewBox="0 0 48 48" xmlns="http://www.w3.org/2000/svg" id="dsmIcon"><g id="Icon/Essential/control-repeat" stroke-width="1" fill-rule="nonzero"><path d="M20.652 6.96c.293.4.45.885.45 1.382l.014 3.14 4.881-.036c8.284.085 14.985 6.923 15.095 15.392.112 8.59-6.6 15.69-15.045 15.807a3.6 3.6 0 01-.311-7.19l.487-.018c4.296-.211 7.73-3.94 7.67-8.505-.06-4.565-3.586-8.193-7.884-8.285l-.276-.001-4.58.043.018 3.326a2.276 2.276 0 01-.697 1.666 2.334 2.334 0 01-3.007.255l-9.57-6.79a2.34 2.34 0 01-.286-3.575l.194-.195 9.581-6.927a2.338 2.338 0 013.266.511z" id="Path" fill="#C98A01"/><path d="M18.091 7.42a1.139 1.139 0 011.802.778l.009.146.02 4.359.831-.015 5.253-.042c7.616.09 13.784 6.392 13.886 14.207.104 7.936-6.086 14.484-13.862 14.592a2.4 2.4 0 01-.066-4.8c5.094-.07 9.198-4.412 9.128-9.73-.068-5.215-4.125-9.38-9.088-9.469h-.287l-5.77.055.024 4.523c.003.302-.116.587-.34.802-.356.363-.903.44-1.342.21l-.128-.08-9.57-6.788a1.14 1.14 0 01-.27-1.588l.064-.08.196-.213 9.51-6.867z" id="Path" fill="#FFF"/></g></svg>