<svg viewBox="0 0 48 48" xmlns="http://www.w3.org/2000/svg" id="dsmIcon"><g id="Icon/Essential/control-loop" stroke-width="1" fill-rule="nonzero"><path d="M41.5 27.08c.022.134.033.266.032.4v.262L39.737 38.89a2.262 2.262 0 01-3.837 1.246l-2.031-2.008c-6.68 6.3-16.94 5.925-23.19-1.011a17.966 17.966 0 01-3.78-6.633 3.6 3.6 0 016.797-2.368l.22.642a10.721 10.721 0 002.111 3.539c3.475 3.856 8.957 4.127 12.715.764l-2.136-2.11a2.198 2.198 0 01-.663-1.614 2.256 2.256 0 011.883-2.23l11.064-1.876a2.263 2.263 0 012.61 1.849zM14.133 9.872c6.68-6.3 16.939-5.924 23.189 1.012a17.966 17.966 0 013.779 6.633 3.6 3.6 0 01-6.797 2.368l-.219-.642a10.721 10.721 0 00-2.112-3.539c-3.399-3.772-8.719-4.113-12.466-.98l-.247.215 2.134 2.11.137.147c.348.407.538.929.527 1.467a2.255 2.255 0 01-1.694 2.188l-.19.041-11.063 1.877-.176.023a2.263 2.263 0 01-2.434-1.872l-.026-.2-.007-.198v-.263L8.263 9.11l.034-.173a2.263 2.263 0 013.652-1.211l.151.138 2.033 2.008z" id="Shape" fill="#C98A01"/><path d="M40.317 27.283l.012.094.003.097.008.172-1.788 11.057a1.063 1.063 0 01-1.703.673l-.102-.09-2.898-2.864a2.426 2.426 0 01-.177.21c-6.164 6.481-16.105 6.337-22.102-.318a16.767 16.767 0 01-3.526-6.19 2.4 2.4 0 114.577-1.446 11.97 11.97 0 002.515 4.423c4.126 4.579 10.822 4.676 15.057.223.086-.09.176-.172.271-.246l-3.016-2.981a1.01 1.01 0 01-.306-.751 1.06 1.06 0 01.769-1.028l.116-.026 11.063-1.877a1.063 1.063 0 011.227.868zM14.328 11.37c6.164-6.483 16.106-6.338 22.102.316a16.767 16.767 0 013.526 6.191 2.4 2.4 0 01-4.577 1.446 11.97 11.97 0 00-2.515-4.423c-4.126-4.58-10.822-4.677-15.057-.223-.086.09-.177.172-.272.246l3.018 2.98c.2.197.31.462.305.751.004.52-.37.966-.885 1.054L8.91 21.585a1.063 1.063 0 01-1.242-1.059l-.008-.172L9.448 9.297a1.063 1.063 0 011.806-.583l2.897 2.865c.054-.072.114-.142.177-.21z" id="Combined-Shape" fill="#FFF"/></g></svg>