<svg viewBox="0 0 48 48" xmlns="http://www.w3.org/2000/svg" id="dsmIcon"><g id="Icon/Essential/control-wait" stroke-width="1" fill-rule="nonzero"><path d="M30.6 7.2A2.4 2.4 0 0133 9.6v6.784a3.6 3.6 0 01-1.107 2.598L26.04 24.6l5.834 5.518A3.6 3.6 0 0133 32.733V39.6a2.4 2.4 0 01-2.4 2.4H16.2a2.4 2.4 0 01-2.4-2.4v-6.818a3.6 3.6 0 011.126-2.615l5.834-5.52-5.862-5.667a3.6 3.6 0 01-1.098-2.588V9.6a2.4 2.4 0 012.4-2.4h14.4z" id="Path" fill="#C98A01"/><path d="M30.6 8.4l.123.006a1.2 1.2 0 011.07 1.071l.007.123v6.784l-.008.196a2.4 2.4 0 01-.595 1.395l-.135.14-5.853 5.62-.092.098a1.2 1.2 0 00.005 1.54l.093.099 5.834 5.518.138.14c.35.39.562.885.605 1.406l.008.197V39.6l-.006.123a1.2 1.2 0 01-1.071 1.07l-.123.007H16.2l-.123-.006a1.2 1.2 0 01-1.07-1.071L15 39.6v-6.818l.008-.197a2.4 2.4 0 01.605-1.405l.137-.141 5.835-5.521.093-.098a1.2 1.2 0 00.008-1.537l-.092-.1-5.862-5.666-.134-.14a2.4 2.4 0 01-.59-1.391L15 16.392V9.6l.006-.123a1.2 1.2 0 011.071-1.07L16.2 8.4h14.4zm0 25.2H16.2v4.56a1.2 1.2 0 001.077 1.194l.123.006h12a1.2 1.2 0 001.194-1.077l.006-.123V33.6zM26.692 18h-6.584a.892.892 0 00-.694.338.982.982 0 00.026 1.255l.083.082 3.292 2.902a.877.877 0 001.074.073l.096-.073 3.292-2.902a.968.968 0 00.323-.726c0-.487-.35-.888-.802-.943L26.692 18z" id="Shape" fill="#FFF"/></g></svg>