<svg viewBox="0 0 60 60" xmlns="http://www.w3.org/2000/svg" id="dsmIcon"><g id="Icon/uncategorized/new-icon" stroke-width="1" fill-rule="evenodd"><path d="M34.61 7.33a.8.8 0 01.49.168l.08.07 12.425 12.59a.8.8 0 01.221.437l.01.124v27.962c0 2.02-1.586 3.67-3.582 3.771l-.194.005H15.786a3.775 3.775 0 01-3.771-3.582l-.005-.194V11.106a3.775 3.775 0 013.582-3.771l.194-.005H34.61zm-.8 1.599l-18.024.001c-1.15 0-2.09.89-2.17 2.02l-.006.156v37.575c0 1.15.89 2.09 2.02 2.17l.156.006H44.06c1.15 0 2.09-.891 2.17-2.02l.006-.156-.001-27.162H33.811L33.81 8.93zm.908 18.4c.846 0 1.54.649 1.616 1.476l.006.147.002 2.135 1.168 1.17c.266.267.43.616.467.987l.008.16v2.606c0 .379-.133.744-.372 1.034l-.11.119-1.161 1.153-.002 2.149c0 .846-.648 1.54-1.475 1.615l-.147.007h-6.58a7.379 7.379 0 01-.243-14.753l.243-.004h6.58zm0 1.6h-6.58a5.779 5.779 0 00-.221 11.554l.221.004h6.58l.016-.006.006-.016v-2.14c0-.38.133-.744.372-1.034l.11-.12 1.156-1.145.005-.007v-2.623l-1.168-1.17a1.622 1.622 0 01-.467-.987l-.008-.16v-2.127l-.006-.016-.016-.006zm.692-18.852v9.842h9.713l-9.713-9.842z" id="Shape" fill-rule="nonzero"/></g></svg>