<svg viewBox="0 0 60 60" xmlns="http://www.w3.org/2000/svg" id="dsmIcon"><g id="Icon/uncategorized/new-word" stroke-width="1" fill-rule="evenodd"><path d="M34.613 7.325a.8.8 0 01.49.168l.08.07 12.425 12.59a.8.8 0 01.22.437l.01.124v27.962c0 2.02-1.585 3.67-3.581 3.771l-.194.005H15.789a3.775 3.775 0 01-3.771-3.582l-.005-.194V11.1a3.775 3.775 0 013.581-3.771l.195-.005h18.824zm-.8 1.6H15.789c-1.15 0-2.091.89-2.17 2.02l-.006.156v37.575c0 1.15.89 2.09 2.02 2.17l.156.006h28.274c1.15 0 2.09-.89 2.17-2.02l.006-.156-.001-27.162H33.813V8.924zM24.877 29.2c1.913 0 3.565.408 4.949 1.091.508.251.92.506 1.236.736l.15.113.093.076h9.158a1.31 1.31 0 011.284 1.041l.02.13.007.134v5.042c0 .677-.518 1.23-1.177 1.297l-.134.007-15.258-.001-.637.63a1.312 1.312 0 01-.633.347l-.144.024-.147.009h-1.62c-.295 0-.582-.1-.812-.282l-.11-.097-.639-.631h-1.202a1.31 1.31 0 01-1.284-1.04l-.02-.13-.007-.133v-5.546a.8.8 0 01.238-.57c.313-.309.892-.737 1.74-1.156 1.383-.683 3.035-1.091 4.949-1.091zm0 1.6c-1.66 0-3.072.348-4.241.926-.322.159-.606.326-.85.493l-.177.125-.059.044v4.878h1.03c.248 0 .487.07.694.198l.12.084.11.097.637.63h1.385l.64-.63c.175-.173.394-.292.631-.346l.144-.024.147-.008 15.085-.001v-4.45h-9.17a.8.8 0 01-.382-.096l-.084-.053-.23-.197-.163-.126a6.749 6.749 0 00-1.027-.618c-1.169-.578-2.58-.926-4.24-.926zm10.536-20.726v9.84h9.712l-9.712-9.84z" id="Combined-Shape" fill-rule="nonzero"/></g></svg>