<svg viewBox="0 0 48 48" xmlns="http://www.w3.org/2000/svg" id="dsmIcon"><g id="Icon/Essential/display-chart-expand" stroke-width="1" fill-rule="nonzero"><path d="M30 39.6V42H18v-2.4h12zm9.6-31.8a5.403 5.403 0 015.375 4.886l.019.26.006.254v19.2a5.403 5.403 0 01-4.885 5.375l-.26.02-.255.005H8.4a5.4 5.4 0 01-5.394-5.146L3 32.4V13.2a5.4 5.4 0 015.146-5.394L8.4 7.8h31.2z" id="Shape" fill="#007066"/><path d="M39.6 9a4.2 4.2 0 014.195 3.99l.005.225V32.4a4.2 4.2 0 01-3.99 4.195l-.225.005H8.4a4.2 4.2 0 01-4.2-4.2V13.2A4.2 4.2 0 018.4 9h31.2zm-3 5.4h-4.8v20.4h4.8V14.4zm-10.2 6h-4.8v14.4h4.8V20.4zm-10.2 6h-4.8v8.4h4.8v-8.4z" id="Shape" fill="#FFF"/><path d="M19.3 30.323l-.155-.146a3.6 3.6 0 00-4.937.146l-6.025 6.023-1.623-1.622a2.4 2.4 0 00-4.097 1.697l.002 8.382a2.402 2.402 0 002.399 2.4l8.382.002a2.4 2.4 0 002.4-2.4l-.009-.211a2.4 2.4 0 00-.693-1.486l-1.624-1.625 6.025-6.023a3.6 3.6 0 00.145-4.938l-.19-.2z" id="Path" fill="#00722F"/><path d="M18.496 31.217a2.4 2.4 0 01.122 3.263l-.122.131-6.873 6.873 2.472 2.472a1.2 1.2 0 01-.698 2.04l-.15.009-8.382-.002a1.202 1.202 0 01-1.19-1.05l-.01-.15-.002-8.382a1.2 1.2 0 011.944-.942l.105.093 2.471 2.472 6.874-6.873a2.4 2.4 0 013.262-.122l.177.168z" id="Path" fill="#00E05C"/><path d="M45.05.84L36.669.84a2.4 2.4 0 00-2.4 2.4l.009.21a2.4 2.4 0 00.694 1.487l1.623 1.623-6.025 6.025a3.6 3.6 0 00-.161 4.918l.207.219.173.162a3.6 3.6 0 004.918-.162l6.024-6.026 1.624 1.625a2.4 2.4 0 004.097-1.698l-.001-8.381a2.402 2.402 0 00-2.4-2.4z" id="Path" fill="#00722F"/><path d="M36.668 2.039l8.381.002c.616 0 1.123.463 1.192 1.06l.009.14.001 8.381a1.2 1.2 0 01-1.935.949l-.113-.1L41.73 10l-6.873 6.873a2.4 2.4 0 01-3.242.14l-.152-.14-.046-.045a2.4 2.4 0 01-.14-3.242l.14-.153 6.873-6.873-2.472-2.472a1.2 1.2 0 01.71-2.04l.139-.008z" id="Path" fill="#00E05C"/></g></svg>