<svg viewBox="0 0 48 48" xmlns="http://www.w3.org/2000/svg" id="dsmIcon"><g id="Icon/Essential/event-gyro-essential-up" stroke-width="1" fill-rule="nonzero"><path d="M36.339 10.2c.782 0 1.49.446 1.83 1.14l.072.163 1.7 4.39h.941a.6.6 0 01.59.493l.01.108v10.162l-.011.083-.027.094-.017.042-5.085 10.948a2.04 2.04 0 01-1.668 1.173l-.182.008h-21.61a2.04 2.04 0 01-1.817-1.11l-.073-.161-4.446-10.934-.021-.099-.006-.077.004-.07 1.946-9.46h-.043l1.43-5.377a2.04 2.04 0 011.788-1.508l.183-.008H36.34z" id="Path" fill="#C18401"/><path d="M40.28 17.093v8.929l-10.246-.001.001-1.397c0-1.654-1.589-2.921-3.509-2.921h-5.73l-.225.006c-1.833.102-3.283 1.338-3.283 2.915v1.397l-9.432.001.706-3.438c.067.037.14.071.216.103.58.357 1.562.402 2.313.084l.213-.105c1.181-.485 1.181-1.733-.048-2.237-.58-.347-1.498-.397-2.223-.12l.662-3.216h30.586zM27.278 23.76l.123.006c.31.034.483.206.517.518l.007.124-.007.125c-.034.326-.207.57-.517.621l-.123.01h-7.229l-.115-.008a.74.74 0 01-.638-.621l-.01-.127.01-.124c.051-.312.3-.484.627-.518l.126-.006h7.23z" id="Shape" fill="#FFB515"/><path d="M36.339 11.4l.128.01a.84.84 0 01.655.527l1.532 3.956H9.986l1.03-3.869a.84.84 0 01.811-.624H36.34z" id="Path" fill="#FFF"/><path d="M26.007 10.202H21.64v1.896c0 .764.557 1.32 1.32 1.32h1.872l.146-.007c.712-.069 1.196-.643 1.04-1.358l-.01-.034v-1.817z" id="Path" fill="#0091F9"/><path d="M24.807 12.098l.019.12h-1.867l-.05-.003c-.057-.008-.07-.036-.07-.117v-.696h1.968v.696z" id="Path" fill="#4DB6FF"/><path d="M39.761 13.841l-.175-.006c-.557 0-1.058.165-1.424.542l-5.31 5.309c-.464.464-.635 1.207-.473 1.854l.062.194c.235.71.883 1.217 1.614 1.304l.182.012h1.68l1.36 8.86.032.172c.17.727.774 1.286 1.54 1.465l.047.007.031.02c.146.074.304.1.485.106h.072c1.009 0 1.92-.616 2.245-1.515l.052-.17 1.379-8.944h1.645c.728 0 1.427-.435 1.745-1.099l.073-.177c.325-.54.191-1.359-.27-1.936l-.115-.129-5.327-5.339c-.19-.307-.629-.495-1.15-.53z" id="Path" fill="#00722F"/><path d="M39.438 15.043l.14-.008.124.004c.163.012.262.054.284.088l5.38 5.407.07.08c.131.165.185.402.143.56l-.127.294c-.102.211-.379.383-.647.383H42.13l-1.515 9.878-.076.17c-.16.296-.505.525-.898.573l-.176.008-.05-.047-.319-.06c-.336-.08-.59-.332-.631-.634l-1.519-9.888h-2.673l-.112-.007a.747.747 0 01-.58-.483l-.049-.15c-.053-.218.018-.527.168-.677l5.316-5.314c.094-.097.236-.157.422-.177z" id="Path" fill="#00D357"/></g></svg>